<svg width="40" height="40" viewBox="0 0 40 40" fill="none" xmlns="http://www.w3.org/2000/svg">
<circle cx="20" cy="20" r="20" fill="white"/>
<g clip-path="url(#clip0_129_22330)">
<path d="M20.0002 29.9766L19.9802 29.9668L8 23.9375L8.10728 23.8925L20.0002 18.916L20.0172 18.9233L32 23.9375L20.0002 29.9766Z" fill="#1D1D1B"/>
<path d="M9.32031 24.0049L20.01 29.3683L30.6862 23.9787L19.9974 19.5215L9.32031 24.0049Z" fill="white"/>
<path d="M20.005 31.9034L20.0002 29.9766L32 23.9375V25.9632L31.9991 25.9637L20.0041 32.0002L8 25.9632V25.9624V23.9375L20.0002 29.9766L20.005 31.9034Z" fill="#1D1D1B"/>
<path d="M20.0002 24.5172L19.9802 24.5074L8 18.4781L8.10728 18.4336L20.0002 13.457L20.0172 13.4639L32 18.4781L20.0002 24.5172Z" fill="#1D1D1B"/>
<path d="M9.32031 18.5483L20.01 23.9112L30.6862 18.5217L19.9974 14.0645L9.32031 18.5483Z" fill="white"/>
<path d="M20.005 26.4468L20.0002 24.5196L32 18.4805V20.5062L31.9991 20.5066L20.0041 26.5436L8 20.5062V20.5058V18.4805L20.0002 24.5196L20.005 26.4468Z" fill="#1D1D1B"/>
<path d="M20.0002 29.9766L19.9802 29.9668L8 23.9375L8.10728 23.8925L20.0002 18.916L20.0172 18.9233L32 23.9375L20.0002 29.9766Z" fill="#1D1D1B"/>
<path d="M9.32031 24.0049L20.01 29.3683L30.6862 23.9787L19.9974 19.5215L9.32031 24.0049Z" fill="white"/>
<path d="M20.005 31.9034L20.0002 29.9766L32 23.9375V25.9632L31.9991 25.9637L20.0041 32.0002L8 25.9632V25.9624V23.9375L20.0002 29.9766L20.005 31.9034Z" fill="#1D1D1B"/>
<path d="M20.0002 24.5172L19.9802 24.5074L8 18.4781L8.10728 18.4336L20.0002 13.457L20.0172 13.4639L32 18.4781L20.0002 24.5172Z" fill="#1D1D1B"/>
<path d="M9.32031 18.5483L20.01 23.9112L30.6862 18.5217L19.9974 14.0645L9.32031 18.5483Z" fill="white"/>
<path d="M20.005 26.4468L20.0002 24.5196L32 18.4805V20.5062L31.9991 20.5066L20.0041 26.5436L8 20.5062V20.5058V18.4805L20.0002 24.5196L20.005 26.4468Z" fill="#1D1D1B"/>
<path d="M9.32031 13.0888L20.01 18.4523L30.6862 13.0623L19.9974 8.60547L9.32031 13.0888Z" fill="white"/>
<path d="M20.005 20.9878L20.0002 19.061L32 13.0215V15.0477H31.9991L20.0041 21.0846L8 15.0477V15.0468V13.0219L20.0002 19.061L20.005 20.9878Z" fill="#1D1D1B"/>
<path d="M20.0002 19.0606L19.9802 19.0503L8 13.0211L8.10728 12.9765L20.0002 8L20.0172 8.00728L32 13.0211L20.0002 19.0606Z" fill="#1D1D1B"/>
<path d="M20.005 20.9878L20.0002 19.061L32 13.0215V15.0477H31.9991L20.0041 21.0846L8 15.0477V15.0468V13.0219L20.0002 19.061L20.005 20.9878Z" fill="#1D1D1B"/>
<path d="M20.0002 19.0606L19.9802 19.0503L8 13.0211L8.10728 12.9765L20.0002 8L20.0172 8.00728L32 13.0211L20.0002 19.0606Z" fill="#1D1D1B"/>
<path d="M9.32422 13.0849L20.0139 18.4484L30.6901 13.0588L20.0017 8.60156L9.32422 13.0849Z" fill="white"/>
<path d="M19.992 9.70508L11.6953 13.1889L20.0016 17.3565L28.2974 13.1683" stroke="#1D1D1B" stroke-width="0.0428457" stroke-miterlimit="10"/>
<path d="M19.9942 11.1602L14.8555 13.3179L20.0004 15.8989L25.1383 13.305" stroke="#1D1D1B" stroke-width="0.0428457" stroke-miterlimit="10"/>
<path d="M19.9684 12.0856L19.968 13.5171L22.7116 12.311H22.7133L25.1416 13.3243L19.968 15.898L14.8588 13.308L19.9998 11.1366L20.0007 9.70508L11.7109 13.1953L19.9998 17.3543L28.3013 13.1794L22.6967 10.8311L22.6954 10.8319L19.9684 12.0856Z" fill="black" stroke="#1D1D1B" stroke-width="0.0428457" stroke-miterlimit="10"/>
</g>
<defs>
<clipPath id="clip0_129_22330">
<rect width="24" height="24" fill="white" transform="translate(8 8)"/>
</clipPath>
</defs>
</svg>
